# xmcd
#
# Track frame offsets:
#	150
#	17053
#	27200
#	46698
#	62053
#	80395
#	99348
#	110785
#	133543
#	149455
#	166013
#	186763
#	195383
#	206567
#	222842
#	258555
#
# Disc length: 3839 seconds
#
# Revision: 0
# Processed by: cddbd v1.5.2PL0 Copyright (c) Steve Scherf et al.
# Submitted via: EasyCDDAExtractor 10.0.5.1
#
DISCID=d90efd10
DTITLE=Tapes 'n Tapes - The Loon (Japanese Edition)
DYEAR=2006
DGENRE=Indie Rock
TTITLE0=Just Drums
TTITLE1=The Iliad
TTITLE2=Insistor
TTITLE3=Crazy Eights
TTITLE4=In Houston
TTITLE5=Manitoba
TTITLE6=Cowbell
TTITLE7=10 Gallon Ascots
TTITLE8=Omaha
TTITLE9=Buckle
TTITLE10=Jakov's Suite
TTITLE11=Frankfurt (Demo)
TTITLE12=Cowbell (KEXP Session Version)
TTITLE13=Omaha (KEXP Session Version)
TTITLE14=Jakov's Suite (KEXP Session Version)
TTITLE15=Insistor Video
EXTD=
EXTT0=
EXTT1=
EXTT2=
EXTT3=
EXTT4=
EXTT5=
EXTT6=
EXTT7=
EXTT8=
EXTT9=
EXTT10=
EXTT11=
EXTT12=
EXTT13=
EXTT14=
EXTT15=
PLAYORDER=
